# xmcd CD database file
#
# Track frame offsets:
#	150
#	13180
#	33629
#	46288
#	63623
#	78228
#	101151
#	122248
#	142914
#	159628
#	172861
#	191765
#
# Disc length: 2893 seconds
#
# Revision: 1
# Processed by: cddbd v1.5.2PL0 Copyright (c) Steve Scherf et al.
# Submitted via: CDex 1.70beta2
#
DISCID=a20b4b0c
DTITLE=Various Artist - A Canadian Smooth Jazz Christmas
DYEAR=2006
DGENRE=Jazz
TTITLE0=Chris Smith - The Christmas Song
TTITLE1=Warren Hill - Jingle Bells
TTITLE2=Jon Peter Lewis - It's Christmas
TTITLE3=Alexander Zonjic and Ervin Monroe - Silent Night
TTITLE4=Steve Oliver - Watching the Snow Fall
TTITLE5=Sophie Milman - This Time of Year
TTITLE6=Gabriel Mark Hasselbach - Christmas Time Is Here
TTITLE7=Alfie Zappacosta - This Christmas Eve
TTITLE8=The Clayton/Scott Group - Have Yourself a Merry Little Christmas
TTITLE9=Marc Jordan and Amy Sky - White Christmas
TTITLE10=Liberty Silver - Let It Snow
TTITLE11=Rik Emmett and Sam Reid - The Holly and The Ivy - We Wish You a Merry Christmas
EXTD=YEAR: 2006
EXTT0=
EXTT1=
EXTT2=
EXTT3=
EXTT4=
EXTT5=
EXTT6=
EXTT7=
EXTT8=
EXTT9=
EXTT10=
EXTT11=
PLAYORDER=
